<?xml version="1.0"?>
<svg xmlns="http://www.w3.org/2000/svg" viewBox="0 0 32 32">
    <path style="text-indent:0;text-align:start;line-height:normal;text-transform:none;block-progression:tb;-inkscape-font-specification:Bitstream Vera Sans" d="M 16 4 C 14.895431 4 14 4.8954305 14 6 C 14 6.7396043 14.403104 7.3727074 15 7.71875 L 15 8.0625 C 13.194907 8.2886585 11.569912 9.1175879 10.34375 10.34375 L 8.96875 9.28125 C 8.9817835 9.1890095 9 9.0958376 9 9 C 9 7.8954305 8.1045695 7 7 7 C 5.8954305 7 5 7.8954305 5 9 C 5 10.104569 5.8954305 11 7 11 C 7.265787 11 7.517993 10.93788 7.75 10.84375 L 9.125 11.90625 C 8.4092384 13.103753 8 14.508314 8 16 C 8 16.095191 7.996674 16.186846 8 16.28125 C 7.7054558 16.110492 7.3649652 16 7 16 C 5.8954305 16 5 16.895431 5 18 C 5 19.104569 5.8954305 20 7 20 C 7.6903559 20 8.2968355 19.657003 8.65625 19.125 C 8.9267233 19.753665 9.2726475 20.372354 9.6875 20.90625 L 8.5 22.0625 C 8.3402409 22.021396 8.172589 22 8 22 C 6.8954305 22 6 22.895431 6 24 C 6 25.104569 6.8954305 26 8 26 C 9.1045695 26 10 25.104569 10 24 C 10 23.827411 9.9786042 23.659759 9.9375 23.5 L 11.09375 22.3125 C 11.830216 22.884755 12.685932 23.305193 13.59375 23.59375 C 13.231821 23.955679 13 24.447715 13 25 C 13 26.104569 13.895431 27 15 27 C 16.104569 27 17 26.104569 17 25 C 17 24.625361 16.897989 24.268494 16.71875 23.96875 C 17.547084 23.893966 18.325407 23.684358 19.0625 23.375 L 20.21875 25.125 C 20.088467 25.390519 20 25.684283 20 26 C 20 27.104569 20.895431 28 22 28 C 23.104569 28 24 27.104569 24 26 C 24 24.895431 23.104569 24 22 24 C 21.957766 24 21.916584 23.99742 21.875 24 L 20.78125 22.375 C 21.683944 21.697584 22.448884 20.866656 23 19.875 L 24.03125 20.28125 C 24.168434 21.25212 24.991269 22 26 22 C 27.104569 22 28 21.104569 28 20 C 28 18.895431 27.104569 18 26 18 C 25.537224 18 25.120134 18.173618 24.78125 18.4375 L 23.71875 18 C 23.825233 17.591778 23.928193 17.180485 23.96875 16.75 C 24.585696 16.409511 25 15.754849 25 15 C 25 14.033125 24.317822 13.217666 23.40625 13.03125 C 23.220993 12.573598 22.981773 12.130136 22.71875 11.71875 L 23.5 10.9375 C 23.659759 10.978604 23.827411 11 24 11 C 25.104569 11 26 10.104569 26 9 C 26 7.8954305 25.104569 7 24 7 C 22.895431 7 22 7.8954305 22 9 C 22 9.1725889 22.021396 9.3402409 22.0625 9.5 L 21.4375 10.125 C 20.243188 9.0203808 18.692 8.2769538 17 8.0625 L 17 7.71875 C 17.596896 7.3727074 18 6.7396043 18 6 C 18 4.8954305 17.104569 4 16 4 z M 16 10 C 19.325553 10 22 12.674447 22 16 C 22 19.325553 19.325553 22 16 22 C 12.674447 22 10 19.325553 10 16 C 10 12.674447 12.674447 10 16 10 z M 14 13 C 13.447715 13 13 13.447715 13 14 C 13 14.552285 13.447715 15 14 15 C 14.552285 15 15 14.552285 15 14 C 15 13.447715 14.552285 13 14 13 z M 19 15 C 17.895431 15 17 15.895431 17 17 C 17 18.104569 17.895431 19 19 19 C 20.104569 19 21 18.104569 21 17 C 21 15.895431 20.104569 15 19 15 z M 15 18 C 14.447715 18 14 18.447715 14 19 C 14 19.552285 14.447715 20 15 20 C 15.552285 20 16 19.552285 16 19 C 16 18.447715 15.552285 18 15 18 z"/>
</svg>
